<svg width="130" height="108" viewBox="0 0 130 108" fill="none" xmlns="http://www.w3.org/2000/svg">
<path fill-rule="evenodd" clip-rule="evenodd" d="M65.364 29.9715L103.723 39.8603C104.257 39.9954 104.815 40.0196 105.362 39.9314C105.91 39.8432 106.435 39.6444 106.904 39.3475C107.374 39.0506 107.779 38.662 108.093 38.2058C108.407 37.7497 108.624 37.2358 108.73 36.6964C110.286 29.0701 110.359 21.2433 108.945 13.6382C108.848 13.0992 108.64 12.5876 108.333 12.1354C108.026 11.6831 107.627 11.2998 107.162 11.0094C106.696 10.7191 106.173 10.5279 105.626 10.4478C105.079 10.3676 104.52 10.4002 103.982 10.5435L65.3393 21.0954L64.6743 21.2806C64.4041 21.376 64.1435 21.4974 63.8963 21.6429C63.2661 22.0044 62.7301 22.5089 62.333 23.114C61.936 23.7191 61.6895 24.4073 61.6143 25.1209L61.6181 25.5657L61.5974 26.0123C61.6613 26.652 61.8585 27.2696 62.1764 27.8261C62.7142 28.7233 63.5534 29.4021 64.5503 29.7459L65.364 29.9715Z" fill="#3ED69E" fill-opacity="0.15"/>
<path fill-rule="evenodd" clip-rule="evenodd" d="M88.4237 71.2291C88.8471 70.8689 89.1923 70.4274 89.4378 69.9321C89.6834 69.4367 89.824 68.8981 89.8508 68.3501C89.8776 67.8021 89.7901 67.2563 89.5938 66.7469C89.3974 66.2375 89.0964 65.7754 88.7095 65.3895L60.7662 37.7038L60.1893 37.1428C59.5359 36.6011 58.7378 36.2567 57.8875 36.1498C57.0372 36.0428 56.1697 36.1777 55.3859 36.5387L54.6267 36.977C53.9231 37.4758 53.3723 38.1585 53.0375 38.947C52.7026 39.7354 52.5972 40.5977 52.7333 41.4351L52.9454 42.2191L62.9409 80.267C63.0831 80.7941 63.3336 81.2848 63.6769 81.7087C64.0202 82.1326 64.449 82.4806 64.9366 82.7312C65.4242 82.9818 65.9603 83.1295 66.5116 83.1653C67.0628 83.2011 67.6174 83.1242 68.141 82.9393C75.5658 80.3254 82.4476 76.3522 88.4237 71.2291Z" fill="#3ED69E" fill-opacity="0.15"/>
<path fill-rule="evenodd" clip-rule="evenodd" d="M36.2345 37.8858L7.79798 66.0499C7.40511 66.4437 7.09695 66.9122 6.89286 67.426C6.68877 67.9398 6.59309 68.488 6.61171 69.0365C6.63034 69.5849 6.76287 70.1218 7.00111 70.6137C7.23935 71.1056 7.57823 71.5419 7.99648 71.8954C13.8807 76.9258 20.6983 80.7818 28.0839 83.2566C28.6051 83.4343 29.1595 83.503 29.7125 83.4587C30.2654 83.4144 30.8051 83.2579 31.2979 82.999C31.7907 82.7401 32.226 82.3844 32.5768 81.9539C32.9276 81.5235 33.1864 81.0275 33.337 80.497L43.9759 42.2198L44.1459 41.6375C44.3532 40.562 44.1633 39.4549 43.6111 38.5192C43.2559 37.8993 42.754 37.3757 42.1476 36.9925L41.9611 36.889C41.8916 36.8546 41.8257 36.8137 41.7641 36.7669C41.087 36.4299 40.3328 36.2671 39.5701 36.2933C38.8073 36.3196 38.0601 36.534 37.3963 36.9171C37.1529 37.0613 36.9211 37.2242 36.703 37.4042L36.2345 37.8858Z" fill="#3ED69E" fill-opacity="0.15"/>
</svg>
