<svg width="241" height="199" viewBox="0 0 241 199" fill="none" xmlns="http://www.w3.org/2000/svg">
<path fill-rule="evenodd" clip-rule="evenodd" d="M118.895 55.5628L47.7832 73.8952C46.7936 74.1457 45.7592 74.1906 44.7444 74.027C43.7297 73.8635 42.7563 73.4949 41.8853 72.9445C41.0143 72.3941 40.2644 71.6737 39.6821 70.8281C39.0998 69.9825 38.6976 69.0298 38.5009 68.0297C35.6159 53.8916 35.4804 39.3818 38.1017 25.283C38.2816 24.2838 38.6681 23.3355 39.237 22.497C39.8059 21.6586 40.5449 20.948 41.4081 20.4097C42.2714 19.8714 43.2404 19.5171 44.2545 19.3684C45.2686 19.2198 46.3061 19.2803 47.3025 19.546L118.941 39.1076L120.174 39.451C120.675 39.628 121.158 39.8529 121.616 40.1226C122.785 40.7929 123.778 41.7281 124.514 42.8499C125.25 43.9717 125.707 45.2475 125.847 46.5704L125.84 47.395L125.878 48.2229C125.76 49.4089 125.394 50.5537 124.805 51.5854C123.808 53.2487 122.252 54.5071 120.404 55.1446L118.895 55.5628Z" fill="#3ED69E" fill-opacity="0.04"/>
<path fill-rule="evenodd" clip-rule="evenodd" d="M76.1475 132.048C75.3627 131.38 74.7227 130.562 74.2675 129.644C73.8123 128.725 73.5516 127.727 73.5019 126.711C73.4522 125.695 73.6144 124.683 73.9784 123.739C74.3425 122.794 74.9005 121.938 75.6176 121.222L127.421 69.8969L128.49 68.857C129.701 67.8527 131.181 67.2143 132.757 67.016C134.334 66.8177 135.942 67.0678 137.395 67.7369L138.803 68.5496C140.107 69.4743 141.128 70.7399 141.749 72.2016C142.369 73.6633 142.565 75.2619 142.313 76.8142L141.919 78.2676L123.389 148.803C123.125 149.78 122.661 150.69 122.025 151.476C121.388 152.262 120.593 152.907 119.689 153.372C118.785 153.836 117.791 154.11 116.77 154.176C115.748 154.243 114.72 154.1 113.749 153.757C99.9842 148.911 87.2263 141.546 76.1475 132.048Z" fill="#3ED69E" fill-opacity="0.04"/>
<path fill-rule="evenodd" clip-rule="evenodd" d="M172.896 70.2345L225.614 122.447C226.342 123.177 226.913 124.045 227.292 124.998C227.67 125.95 227.848 126.967 227.813 127.983C227.778 129 227.533 129.996 227.091 130.907C226.649 131.819 226.021 132.628 225.246 133.284C214.337 142.609 201.698 149.758 188.007 154.346C187.04 154.675 186.012 154.802 184.987 154.72C183.962 154.638 182.962 154.348 182.048 153.868C181.135 153.388 180.328 152.729 179.677 151.931C179.027 151.133 178.547 150.213 178.268 149.23L158.545 78.2691L158.23 77.1895C157.846 75.1957 158.198 73.1433 159.221 71.4087C159.88 70.2595 160.81 69.2888 161.934 68.5784L162.28 68.3866C162.409 68.3228 162.531 68.247 162.645 68.1602C163.901 67.5354 165.299 67.2336 166.713 67.2822C168.127 67.3309 169.512 67.7283 170.743 68.4386C171.194 68.706 171.624 69.0079 172.028 69.3416L172.896 70.2345Z" fill="#3ED69E" fill-opacity="0.04"/>
</svg>
