<svg width="130" height="108" viewBox="0 0 130 108" fill="none" xmlns="http://www.w3.org/2000/svg">
<path fill-rule="evenodd" clip-rule="evenodd" d="M64.1321 29.9715L25.7731 39.8603C25.2393 39.9954 24.6813 40.0196 24.1339 39.9314C23.5866 39.8432 23.0615 39.6444 22.5917 39.3475C22.1219 39.0506 21.7173 38.662 21.4032 38.2058C21.0891 37.7497 20.8722 37.2358 20.7661 36.6964C19.2099 29.0701 19.1368 21.2433 20.5507 13.6382C20.6478 13.0992 20.8563 12.5876 21.1632 12.1354C21.47 11.6831 21.8686 11.2998 22.3343 11.0094C22.7999 10.7191 23.3227 10.5279 23.8697 10.4478C24.4167 10.3676 24.9764 10.4002 25.5138 10.5435L64.1568 21.0954L64.8218 21.2806C65.092 21.376 65.3526 21.4974 65.5998 21.6429C66.23 22.0044 66.766 22.5089 67.1631 23.114C67.5601 23.7191 67.8065 24.4073 67.8818 25.1209L67.878 25.5657L67.8987 26.0123C67.8347 26.652 67.6376 27.2696 67.3197 27.8261C66.7819 28.7233 65.9426 29.4021 64.9458 29.7459L64.1321 29.9715Z" fill="#3ED69E" fill-opacity="0.15"/>
<path fill-rule="evenodd" clip-rule="evenodd" d="M41.0724 71.2291C40.649 70.8689 40.3038 70.4274 40.0583 69.9321C39.8127 69.4367 39.6721 68.8981 39.6453 68.3501C39.6185 67.8021 39.706 67.2563 39.9023 66.7469C40.0987 66.2375 40.3997 65.7754 40.7865 65.3895L68.7299 37.7038L69.3068 37.1428C69.9602 36.6011 70.7583 36.2567 71.6086 36.1498C72.4589 36.0428 73.3264 36.1777 74.1102 36.5387L74.8694 36.977C75.573 37.4758 76.1238 38.1585 76.4586 38.947C76.7935 39.7354 76.8989 40.5977 76.7628 41.4351L76.5507 42.2191L66.5552 80.267C66.413 80.7941 66.1625 81.2848 65.8192 81.7087C65.4759 82.1326 65.0471 82.4806 64.5595 82.7312C64.0719 82.9818 63.5358 83.1295 62.9845 83.1653C62.4333 83.2011 61.8787 83.1242 61.3551 82.9393C53.9303 80.3254 47.0484 76.3522 41.0724 71.2291Z" fill="#3ED69E" fill-opacity="0.15"/>
<path fill-rule="evenodd" clip-rule="evenodd" d="M93.2616 37.8858L121.698 66.0499C122.091 66.4437 122.399 66.9122 122.603 67.426C122.807 67.9398 122.903 68.488 122.884 69.0365C122.866 69.5849 122.733 70.1218 122.495 70.6137C122.257 71.1056 121.918 71.5419 121.5 71.8954C115.615 76.9258 108.798 80.7818 101.412 83.2566C100.891 83.4343 100.337 83.503 99.7836 83.4587C99.2307 83.4144 98.691 83.2579 98.1982 82.999C97.7054 82.7401 97.2701 82.3844 96.9193 81.9539C96.5685 81.5235 96.3097 81.0275 96.1591 80.497L85.5202 42.2198L85.3502 41.6375C85.1429 40.562 85.3328 39.4549 85.885 38.5192C86.2402 37.8993 86.7421 37.3757 87.3485 36.9925L87.5349 36.889C87.6045 36.8546 87.6704 36.8137 87.732 36.7669C88.4091 36.4299 89.1633 36.2671 89.926 36.2933C90.6888 36.3196 91.436 36.534 92.0998 36.9171C92.3432 37.0613 92.575 37.2242 92.793 37.4042L93.2616 37.8858Z" fill="#3ED69E" fill-opacity="0.15"/>
</svg>
