<svg width="257" height="534" viewBox="0 0 257 534" fill="none" xmlns="http://www.w3.org/2000/svg">
<g opacity="0.04">
<path d="M97.6835 476.127L97.6728 476.117L97.662 476.108C96.189 474.822 94.9867 473.235 94.1346 471.445C93.2826 469.654 92.8005 467.701 92.7208 465.707C92.6411 463.713 92.9657 461.725 93.6726 459.868C94.3784 458.014 95.4492 456.334 96.8144 454.928C96.8162 454.927 96.8181 454.925 96.8199 454.923L223.295 326.022L225.922 323.44C228.824 320.956 232.463 319.57 236.229 319.499C238.483 319.515 240.712 319.984 242.789 320.882L244.247 321.815L244.339 321.875L244.434 321.929L245.991 322.81C248.039 324.34 249.717 326.342 250.884 328.66C252.085 331.044 252.71 333.691 252.702 336.378L252.702 336.4L252.703 336.423C252.711 337.431 252.626 338.437 252.45 339.429L251.706 342.319L251.701 342.339L205.275 518.962C205.274 518.965 205.273 518.969 205.272 518.973C204.753 520.897 203.852 522.686 202.63 524.231C201.405 525.78 199.885 527.05 198.167 527.966C196.45 528.881 194.569 529.424 192.642 529.564C190.715 529.704 188.779 529.438 186.955 528.782L186.944 528.778L186.934 528.774C154.165 517.191 123.869 499.322 97.6835 476.127Z" stroke="#023462" stroke-width="8"/>
<path d="M8.88924 319.468L8.88786 319.461L8.88645 319.453C2.37118 284.659 2.37118 248.921 8.88644 214.127L8.88717 214.123C9.25228 212.162 10.0082 210.303 11.1045 208.66C12.2008 207.017 13.613 205.627 15.2496 204.572C16.8862 203.517 18.7139 202.819 20.6188 202.517C22.5197 202.216 24.4611 202.316 26.3243 202.81C26.328 202.811 26.3317 202.812 26.3354 202.813L199.357 250.083L199.371 250.087L199.386 250.091L202.755 250.985C205.583 252.096 208.068 253.985 209.929 256.455C211.794 258.932 212.957 261.894 213.28 265.012L213.28 268.62C212.96 271.736 211.796 274.694 209.925 277.163L213.112 279.58L209.924 277.163C208.049 279.636 205.542 281.516 202.692 282.602L199.358 283.546L199.322 283.556L26.324 330.77C26.3219 330.771 26.3199 330.771 26.3178 330.772C24.4546 331.273 22.5113 331.377 20.608 331.078C18.7026 330.779 16.8741 330.082 15.2373 329.027C13.6005 327.972 12.189 326.581 11.095 324.936C10.0008 323.291 9.24882 321.43 8.88924 319.468Z" stroke="#023462" stroke-width="8"/>
<path d="M251.758 191.132L251.768 191.167L251.778 191.203L252.55 193.932C252.706 194.925 252.791 195.928 252.804 196.934C252.8 199.769 252.103 202.554 250.78 205.039C249.503 207.437 247.683 209.479 245.482 210.997C245.101 211.179 244.732 211.385 244.378 211.615L243.718 212.012C241.422 213.198 238.887 213.81 236.32 213.802L236.294 213.802L236.269 213.802C232.357 213.84 228.55 212.46 225.527 209.897L223.751 208.04L223.733 208.021L223.715 208.003L96.8257 78.7304C96.8235 78.7281 96.8212 78.7258 96.819 78.7235C95.4525 77.3142 94.3806 75.6293 93.674 73.7711L89.9352 75.1929L93.674 73.7711C92.9661 71.9097 92.641 69.9173 92.7208 67.9188C92.8005 65.9202 93.2832 63.9621 94.1362 62.1671C94.9893 60.3721 96.1931 58.7808 97.6685 57.49L97.6762 57.4833L97.6838 57.4765C123.914 34.2905 154.241 16.4223 187.035 4.82647L187.046 4.82276L187.056 4.81901C188.881 4.16229 190.817 3.89631 192.743 4.03633C194.67 4.17637 196.55 4.71962 198.268 5.63519C199.987 6.55087 201.507 7.82034 202.731 9.36862C203.953 10.9139 204.854 12.7038 205.374 14.6276C205.375 14.6314 205.376 14.6352 205.377 14.6391L251.758 191.132Z" stroke="#023462" stroke-width="8"/>
</g>
</svg>
