<svg width="257" height="534" viewBox="0 0 257 534" fill="none" xmlns="http://www.w3.org/2000/svg">
<g opacity="0.04">
<path d="M159.119 476.127L159.13 476.117L159.141 476.108C160.614 474.822 161.816 473.235 162.668 471.445C163.52 469.654 164.002 467.701 164.082 465.707C164.162 463.713 163.837 461.725 163.13 459.868C162.424 458.014 161.354 456.334 159.989 454.929C159.987 454.927 159.985 454.925 159.983 454.923L33.5083 326.023L30.8808 323.44C27.9792 320.956 24.3406 319.57 20.5739 319.499C18.3205 319.515 16.0912 319.984 14.0132 320.882L12.5562 321.815L12.4638 321.875L12.3683 321.929L10.8116 322.81C8.76377 324.34 7.08607 326.341 5.9183 328.66C4.71771 331.044 4.09304 333.691 4.10034 336.378L4.1004 336.4L4.1002 336.423C4.09176 337.431 4.17646 338.437 4.35304 339.429L5.09681 342.319L5.10198 342.339L51.5277 518.962C51.5286 518.965 51.5295 518.969 51.5305 518.972C52.0498 520.896 52.9506 522.686 54.1731 524.231C55.3979 525.78 56.9181 527.05 58.6358 527.966C60.3531 528.881 62.2339 529.424 64.1612 529.564C66.0881 529.704 68.0235 529.438 69.8479 528.782L69.8586 528.778L69.8692 528.774C102.638 517.191 132.933 499.322 159.119 476.127Z" stroke="#023462" stroke-width="8"/>
<path d="M247.913 319.468L251.848 320.189L247.916 319.453C254.432 284.659 254.432 248.921 247.916 214.127L247.916 214.123C247.55 212.162 246.795 210.303 245.698 208.66C244.602 207.017 243.19 205.627 241.553 204.572C239.917 203.517 238.089 202.819 236.184 202.517C234.284 202.216 232.343 202.315 230.48 202.809C230.476 202.81 230.472 202.812 230.467 202.813L57.4454 250.083L57.4313 250.087L57.4171 250.091L54.0478 250.985C51.2196 252.096 48.7348 253.985 46.8741 256.455C45.0082 258.932 43.8462 261.894 43.5229 265.012L43.5229 268.62C43.8424 271.736 45.0066 274.694 46.8782 277.163C48.7534 279.636 51.2607 281.516 54.1107 282.602L57.4444 283.546L57.4805 283.556L230.479 330.77C230.481 330.771 230.483 330.771 230.485 330.772C232.348 331.273 234.291 331.377 236.195 331.078C238.1 330.779 239.929 330.082 241.565 329.027C243.202 327.972 244.614 326.581 245.708 324.936C246.802 323.291 247.554 321.43 247.913 319.468Z" stroke="#023462" stroke-width="8"/>
<path d="M5.04434 191.132L5.03491 191.167L5.0248 191.203L4.25314 193.932C4.09659 194.924 4.01161 195.927 3.99892 196.933C4.00307 199.768 4.70004 202.554 6.02277 205.039C7.29991 207.437 9.11954 209.479 11.3206 210.997C11.7016 211.179 12.0702 211.385 12.4243 211.615L13.0854 212.012C15.3807 213.198 17.9156 213.81 20.4827 213.802L20.5084 213.802L20.5342 213.802C24.4461 213.84 28.2529 212.46 31.2757 209.897L33.0516 208.04L33.0694 208.021L33.0875 208.003L159.977 78.7304C159.979 78.7279 159.982 78.7253 159.984 78.7228C161.351 77.3136 162.422 75.629 163.129 73.7711C163.837 71.9097 164.162 69.9173 164.082 67.9188C164.002 65.9202 163.52 63.9621 162.666 62.1671C161.813 60.3721 160.61 58.7808 159.134 57.49L159.127 57.4833L159.119 57.4765C132.888 34.2905 102.562 16.4223 69.7674 4.82647L69.7569 4.82278L69.7465 4.81903C67.9215 4.16229 65.9858 3.89631 64.0596 4.03633C62.133 4.17637 60.2523 4.71962 58.5343 5.63517C56.8161 6.55087 55.2959 7.82034 54.0715 9.36862C52.8494 10.9141 51.9485 12.7041 51.429 14.6281C51.4281 14.6317 51.4271 14.6354 51.4261 14.6391L5.04434 191.132Z" stroke="#023462" stroke-width="8"/>
</g>
</svg>
