<svg width="396" height="383" viewBox="0 0 396 383" fill="none" xmlns="http://www.w3.org/2000/svg">
<path d="M69.4211 342.846L69.4211 342.845L69.413 342.838C68.2168 341.794 67.2428 340.507 66.5533 339.059C65.8638 337.61 65.4743 336.031 65.4099 334.42C65.3455 332.809 65.6077 331.202 66.1794 329.7C66.7508 328.199 67.6186 326.837 68.7273 325.696C68.728 325.696 68.7288 325.695 68.7295 325.694L159.285 233.402L161.208 231.512C163.534 229.506 166.464 228.385 169.502 228.331C171.342 228.342 173.162 228.732 174.851 229.479L175.985 230.205L176.02 230.228L176.056 230.248L177.243 230.92C178.912 232.15 180.276 233.767 181.219 235.64C182.176 237.539 182.672 239.645 182.667 241.783L182.667 241.791L182.667 241.799C182.674 242.623 182.603 243.445 182.455 244.254L181.908 246.378L181.906 246.386L148.667 372.844C148.666 372.846 148.666 372.847 148.665 372.849C148.246 374.405 147.517 375.855 146.526 377.109C145.533 378.363 144.299 379.395 142.902 380.139C141.506 380.884 139.975 381.326 138.404 381.44C136.834 381.554 135.258 381.338 133.773 380.803L133.765 380.8C110.139 372.449 88.2981 359.566 69.4211 342.846Z" stroke="white" stroke-width="3"/>
<path d="M5.41903 229.919L5.41904 229.919L5.41798 229.913C0.722652 204.838 0.722651 179.084 5.41797 154.008L5.41824 154.007C5.71321 152.423 6.32415 150.919 7.21191 149.589C8.09966 148.259 9.24484 147.13 10.5749 146.273C11.905 145.416 13.3922 144.847 14.944 144.601C16.4945 144.356 18.0779 144.437 19.5968 144.841C19.5981 144.841 19.5994 144.841 19.6007 144.842L143.475 178.685L143.486 178.688L145.972 179.347C148.265 180.232 150.275 181.752 151.773 183.742C153.274 185.734 154.2 188.116 154.447 190.619L154.447 193.339C154.203 195.842 153.274 198.224 151.768 200.211C150.26 202.199 148.236 203.711 145.931 204.577L143.476 205.272L143.462 205.276L19.5964 239.081C19.5956 239.081 19.5948 239.081 19.594 239.081C18.0751 239.49 16.4904 239.575 14.9383 239.332C13.3854 239.088 11.8969 238.52 10.5661 237.662C9.23536 236.805 8.0903 235.675 7.20401 234.343C6.31769 233.01 5.70963 231.505 5.41903 229.919Z" stroke="white" stroke-width="3"/>
<path d="M181.946 137.451L181.95 137.464L181.953 137.478L182.527 139.508C182.659 140.313 182.729 141.127 182.739 141.943C182.737 144.198 182.184 146.415 181.13 148.394C180.096 150.338 178.611 151.99 176.811 153.208C176.553 153.325 176.305 153.462 176.068 153.617L175.536 153.936C173.688 154.899 171.643 155.397 169.57 155.39L169.561 155.39L169.551 155.391C166.396 155.421 163.331 154.299 160.911 152.224L159.591 150.845L159.585 150.838L159.578 150.831L68.7328 58.2793C68.732 58.2785 68.7312 58.2777 68.7304 58.2768C67.6207 57.1332 66.7521 55.7675 66.1803 54.2638C65.608 52.7589 65.3455 51.1492 65.4099 49.535C65.4743 47.9209 65.8642 46.3384 66.5542 44.8865C67.2442 43.4345 68.2191 42.1449 69.4166 41.0972L69.4224 41.0921C88.3311 24.3781 110.194 11.4963 133.837 3.13617L133.845 3.13336C135.331 2.59883 136.907 2.38197 138.477 2.49608C140.047 2.6102 141.578 3.05278 142.975 3.79733C144.372 4.54193 145.606 5.57292 146.598 6.82763C147.59 8.08131 148.319 9.53158 148.738 11.088C148.739 11.0894 148.739 11.0908 148.739 11.0921L181.946 137.451Z" stroke="white" stroke-width="3"/>
<path d="M220.706 229.561C222.55 228.394 224.303 227.087 225.951 225.654L225.951 225.983L228.52 223.372C235.286 216.495 239.628 207.535 240.875 197.89C242.123 188.246 240.209 178.45 235.427 170.026C233.545 166.67 231.221 163.591 228.519 160.874C226.042 158.332 223.269 156.107 220.262 154.249C220.096 154.064 219.88 153.893 219.601 153.776C219.487 153.729 219.373 153.696 219.268 153.674L219.148 153.602C216.87 152.133 215.082 149.987 214.027 147.446C212.974 144.908 212.704 142.102 213.256 139.402L213.631 137.943L213.633 137.935L246.944 11.2234C246.944 11.2226 246.944 11.2217 246.944 11.2209C247.36 9.66565 248.086 8.21631 249.074 6.96271C250.063 5.70849 251.294 4.67755 252.688 3.93301C254.082 3.18851 255.61 2.74585 257.177 2.63147C258.745 2.51709 260.319 2.7333 261.801 3.26736L261.811 3.27072C289.11 12.8958 313.987 28.5514 334.662 49.1193C355.337 69.6872 371.299 94.6591 381.404 122.25C391.509 149.842 395.507 179.369 393.111 208.72C390.716 238.069 381.986 266.515 367.549 292.023C350.254 322.261 325.498 347.357 295.742 364.817L295.74 364.819C284.93 371.194 273.545 376.496 261.741 380.652L261.741 380.652L261.732 380.656C260.247 381.189 258.671 381.405 257.103 381.288C255.534 381.172 254.004 380.726 252.61 379.978L251.903 381.297L252.61 379.978C251.215 379.231 249.985 378.196 248.997 376.939C248.01 375.681 247.287 374.228 246.875 372.669C246.875 372.669 246.875 372.668 246.875 372.668L213.435 245.488L213.435 245.396L213.435 245.209L213.388 245.027C213.122 243.977 212.984 242.898 212.978 241.813C212.974 239.649 213.485 237.517 214.464 235.6C215.432 233.703 216.831 232.073 218.54 230.845L219.53 230.273L219.543 230.266L219.557 230.257L220.68 229.577L220.693 229.57L220.706 229.561Z" stroke="white" stroke-width="3"/>
</svg>
