<svg width="178" height="51" viewBox="0 0 178 51" fill="none" xmlns="http://www.w3.org/2000/svg">
<g clip-path="url(#clip0_448_241)">
<path fill-rule="evenodd" clip-rule="evenodd" d="M19.1449 20.0554L7.41505 8.54631C7.2513 8.38705 7.05587 8.26261 6.84092 8.18078C6.62596 8.09894 6.3961 8.06146 6.16572 8.07067C5.93535 8.07988 5.70942 8.13558 5.50196 8.23431C5.29451 8.33303 5.10997 8.47265 4.95996 8.64445C2.81902 11.0615 1.16933 13.8582 0.0998537 16.8837C0.0229288 17.0975 -0.00826705 17.3245 0.00817022 17.5506C0.0246075 17.7768 0.0882997 17.9972 0.195366 18.1981C0.302433 18.399 0.450578 18.5761 0.630474 18.7183C0.810371 18.8606 1.01819 18.965 1.24101 19.0249L17.3126 23.2494L17.59 23.3208C17.7069 23.3425 17.8256 23.353 17.9446 23.352C18.246 23.3528 18.5432 23.2828 18.8114 23.1477C19.0795 23.0127 19.3108 22.8166 19.4859 22.5758L19.5768 22.4152L19.6768 22.2591C19.7866 22.016 19.8438 21.7532 19.845 21.4874C19.8379 21.0535 19.6772 20.6355 19.3904 20.3052L19.1449 20.0554Z" fill="white"/>
<path fill-rule="evenodd" clip-rule="evenodd" d="M19.4184 0.450228C19.1916 0.491794 18.976 0.578804 18.7851 0.705836C18.5941 0.832868 18.4319 0.99719 18.3086 1.18852C18.1853 1.37985 18.1035 1.59408 18.0684 1.81782C18.0333 2.04156 18.0456 2.27 18.1045 2.48886L22.4009 18.2313L22.4918 18.5525C22.6142 18.8826 22.8295 19.1719 23.1128 19.3867C23.3961 19.6015 23.7357 19.733 24.0922 19.7659H24.4559C24.8121 19.7326 25.1516 19.6016 25.4354 19.3878C25.7192 19.174 25.936 18.886 26.0608 18.557L26.1472 18.2313L30.4481 2.48886C30.5063 2.27002 30.5181 2.04176 30.4827 1.81827C30.4473 1.59477 30.3654 1.3808 30.2422 1.18963C30.119 0.99847 29.9571 0.834188 29.7664 0.706993C29.5758 0.579798 29.3606 0.492404 29.1342 0.450228C25.9245 -0.150768 22.628 -0.150768 19.4184 0.450228Z" fill="white"/>
<path fill-rule="evenodd" clip-rule="evenodd" d="M31.2512 23.2542L47.3092 19.0342C47.532 18.9742 47.7399 18.8698 47.9198 18.7276C48.0997 18.5853 48.2478 18.4082 48.3549 18.2073C48.4619 18.0064 48.5257 17.786 48.5421 17.5599C48.5586 17.3338 48.5273 17.1067 48.4504 16.8929C47.3798 13.8652 45.7303 11.0658 43.5903 8.64477C43.4399 8.47284 43.2549 8.33314 43.0471 8.23437C42.8393 8.1356 42.6129 8.07988 42.3822 8.07067C42.1514 8.06146 41.9213 8.09897 41.7059 8.18086C41.4906 8.26274 41.2948 8.38725 41.1306 8.54663L29.369 20.0914L29.1871 20.2654C28.8896 20.6088 28.7282 21.0459 28.7325 21.4966C28.7315 21.793 28.8032 22.0852 28.9416 22.3486L28.9871 22.4245C29.005 22.4512 29.0202 22.4796 29.0326 22.5092C29.2059 22.7707 29.4431 22.9856 29.7226 23.1344C30.0021 23.2832 30.315 23.3612 30.6329 23.3612C30.7503 23.3599 30.8674 23.3495 30.983 23.33L31.2512 23.2542Z" fill="white"/>
<path fill-rule="evenodd" clip-rule="evenodd" d="M20.4369 28.8522C20.1409 28.563 19.88 28.2412 19.6595 27.8931L19.5731 27.7503L19.4958 27.6165C19.3212 27.3709 19.0886 27.1703 18.8178 27.0321C18.547 26.8938 18.2462 26.8219 17.9409 26.8225C17.7875 26.8233 17.6348 26.8428 17.4863 26.8805H17.4499L1.26465 31.1362C1.04158 31.1951 0.833319 31.2987 0.652941 31.4403C0.472563 31.5819 0.323949 31.7585 0.21639 31.9591C0.108831 32.1597 0.0446316 32.38 0.0278617 32.606C0.0110918 32.8321 0.0421132 33.0591 0.118935 33.2729C0.651239 34.7845 1.33024 36.2425 2.14663 37.6267C4.38243 41.4369 7.59562 44.6065 11.4668 46.8206C14.7325 48.6691 18.3742 49.7866 22.1313 50.0933C25.8885 50.4 29.6684 49.8882 33.2005 48.5946C36.7326 47.301 39.9297 45.2576 42.5631 42.6104C45.1966 39.9632 47.2013 36.7778 48.4339 33.2818C48.5108 33.0684 48.542 32.8416 48.5255 32.6158C48.509 32.39 48.4452 32.1699 48.3381 31.9693C48.231 31.7688 48.0829 31.5921 47.903 31.4503C47.7231 31.3084 47.5154 31.2045 47.2927 31.1451L31.1893 26.9117L30.9983 26.8626C30.6166 26.7836 30.2194 26.8212 29.8601 26.9703C29.5009 27.1195 29.1968 27.373 28.9888 27.6968L28.9569 27.7503C28.9569 27.7726 28.957 27.7905 28.9251 27.8083C28.6933 28.189 28.4138 28.5397 28.0931 28.8522C27.7599 29.1836 27.3821 29.4688 26.9701 29.6997C25.9357 30.287 24.7324 30.5223 23.5476 30.3691C22.3627 30.2158 21.2627 29.6825 20.4187 28.8522H20.4369Z" fill="#3ED79F"/>
</g>
<g clip-path="url(#clip1_448_241)">
<path d="M62.7969 26.666V12.7513C62.7969 12.7072 62.8147 12.6649 62.8465 12.6338C62.8783 12.6026 62.9214 12.5851 62.9663 12.5851H66.5482C66.5931 12.5851 66.6362 12.6026 66.668 12.6338C66.6998 12.6649 66.7176 12.7072 66.7176 12.7513V19.0552L71.2596 12.6543C71.2743 12.6322 71.2946 12.6141 71.3186 12.602C71.3425 12.5898 71.3692 12.584 71.3961 12.5851H75.5805C75.6115 12.5853 75.6419 12.5938 75.6684 12.6099C75.6948 12.6259 75.7163 12.6488 75.7304 12.6759C75.7445 12.7031 75.7507 12.7335 75.7483 12.7639C75.7459 12.7943 75.7351 12.8236 75.717 12.8483L70.5395 19.5309L76.1594 26.5644C76.1786 26.5888 76.1905 26.6181 76.1938 26.6488C76.1971 26.6795 76.1916 26.7105 76.1779 26.7383C76.1642 26.7661 76.1429 26.7896 76.1164 26.8062C76.0898 26.8228 76.0591 26.8318 76.0276 26.8322H71.5185C71.492 26.8313 71.4659 26.8247 71.4423 26.8127C71.4187 26.8007 71.3981 26.7838 71.382 26.763L66.7035 20.436V26.666C66.7035 26.7101 66.6856 26.7524 66.6539 26.7836C66.6221 26.8147 66.579 26.8322 66.5341 26.8322H62.9522C62.9098 26.8287 62.8702 26.8097 62.8414 26.7789C62.8126 26.7481 62.7967 26.7078 62.7969 26.666Z" fill="white"/>
<path d="M92.442 19.7393C92.4483 20.7304 92.2547 21.7129 91.8725 22.6303C91.4787 23.5298 90.9058 24.3431 90.1875 25.0225C89.4565 25.7174 88.5949 26.2664 87.6506 26.6389C86.7091 27.0105 85.7048 27.2048 84.69 27.2116C83.6734 27.2079 82.667 27.0135 81.7248 26.6389C80.7817 26.2745 79.9247 25.7244 79.2066 25.0225C78.482 24.3394 77.9085 23.5172 77.5216 22.6072C77.1251 21.7013 76.9216 20.7253 76.9238 19.7393C76.9217 18.7518 77.1251 17.7744 77.5216 16.8668C77.9085 15.9568 78.482 15.1346 79.2066 14.4515C79.9249 13.7453 80.7815 13.1892 81.7248 12.8166C82.6668 12.4435 83.6742 12.2552 84.69 12.2624C85.7108 12.2562 86.723 12.446 87.6694 12.8212C88.6094 13.1952 89.4639 13.7494 90.1828 14.4515C90.9034 15.139 91.4777 15.9599 91.8725 16.8668C92.2538 17.778 92.4474 18.7543 92.442 19.7393ZM84.6806 23.9234C85.1984 23.9319 85.7119 23.8293 86.1851 23.6227C86.6583 23.4161 87.0798 23.1105 87.42 22.7273C87.7769 22.34 88.0506 21.886 88.2248 21.3926C88.4023 20.859 88.4897 20.3005 88.4837 19.7393C88.5179 18.6453 88.1314 17.5787 87.4011 16.7513C87.0649 16.368 86.647 16.0618 86.1769 15.8543C85.7068 15.6468 85.196 15.5431 84.6806 15.5506C84.1639 15.5389 83.651 15.6406 83.1795 15.8484C82.708 16.0561 82.2898 16.3646 81.9554 16.7513C81.2277 17.5796 80.8445 18.6464 80.8823 19.7393C80.8326 20.8363 81.2095 21.9109 81.9366 22.7457C82.2778 23.1277 82.7005 23.4312 83.1748 23.6347C83.649 23.8382 84.1631 23.9368 84.6806 23.9234Z" fill="white"/>
<path d="M107.39 26.833H95.035C95.0043 26.833 94.9741 26.8249 94.9478 26.8095C94.9214 26.794 94.8998 26.7718 94.8853 26.7453C94.8708 26.7187 94.8639 26.6888 94.8654 26.6587C94.8669 26.6286 94.8767 26.5994 94.8938 26.5744L102.053 15.6708H96.3388C96.2942 15.6696 96.2518 15.6517 96.2202 15.6208C96.1887 15.5899 96.1705 15.5483 96.1693 15.5046V12.7336C96.1693 12.6895 96.1871 12.6472 96.2189 12.616C96.2507 12.5849 96.2938 12.5674 96.3388 12.5674H108.082C108.112 12.5679 108.141 12.5761 108.167 12.5913C108.193 12.6065 108.214 12.6281 108.228 12.654C108.243 12.6798 108.25 12.7089 108.249 12.7383C108.248 12.7677 108.239 12.7964 108.223 12.8214L101.083 23.7111H107.39C107.435 23.7111 107.478 23.7286 107.51 23.7598C107.542 23.7909 107.56 23.8333 107.56 23.8774V26.6483C107.562 26.6716 107.56 26.6952 107.553 26.7176C107.545 26.7399 107.533 26.7605 107.517 26.7779C107.501 26.7954 107.482 26.8093 107.46 26.8188C107.438 26.8283 107.414 26.8331 107.39 26.833Z" fill="white"/>
<path d="M117.183 22.4171C117.196 22.3947 117.215 22.3757 117.237 22.3618C117.259 22.3479 117.284 22.3395 117.311 22.3372C117.337 22.335 117.363 22.339 117.388 22.3489C117.412 22.3587 117.434 22.3742 117.451 22.394C117.915 22.9005 118.451 23.3391 119.042 23.6963C119.556 24.0048 120.144 24.1737 120.746 24.1858C121.216 24.2035 121.677 24.0544 122.045 23.7656C122.208 23.6397 122.34 23.4781 122.429 23.2938C122.518 23.1095 122.562 22.9073 122.558 22.7034C122.569 22.5014 122.537 22.2993 122.464 22.11C122.391 21.9207 122.279 21.7485 122.134 21.6043C121.519 21.2204 120.836 20.954 120.12 20.8192C118.708 20.4405 117.71 19.9556 117.122 19.3552C116.5 18.674 116.178 17.7791 116.227 16.866C116.207 16.2442 116.322 15.6253 116.565 15.0509C116.809 14.4766 117.175 13.9601 117.639 13.5363C118.124 13.0977 118.693 12.7576 119.313 12.5357C119.932 12.3137 120.59 12.2143 121.249 12.2431C122.021 12.2338 122.789 12.3413 123.527 12.5618C124.204 12.7675 124.848 13.0627 125.443 13.4392C125.478 13.4603 125.503 13.493 125.515 13.5311C125.528 13.5693 125.525 13.6105 125.509 13.6471L124.412 16.1132C124.401 16.1356 124.385 16.1552 124.365 16.1706C124.345 16.186 124.321 16.1968 124.296 16.2021C124.272 16.2074 124.246 16.2072 124.221 16.2014C124.196 16.1956 124.173 16.1844 124.153 16.1686C123.783 15.8762 123.372 15.6353 122.934 15.4528C122.487 15.2706 122.007 15.1749 121.522 15.1711C121.107 15.156 120.698 15.2761 120.36 15.5128C120.219 15.6077 120.104 15.7355 120.026 15.8846C119.948 16.0337 119.909 16.1996 119.913 16.3672C119.909 16.5298 119.942 16.6911 120.01 16.8396C120.078 16.9881 120.178 17.1201 120.303 17.2262C120.769 17.5215 121.286 17.7298 121.828 17.8404H121.899C121.929 17.8362 121.959 17.8362 121.988 17.8404C123.601 18.2622 124.666 18.7364 125.184 19.2629C125.537 19.6208 125.807 20.0493 125.975 20.519C126.156 21.0454 126.243 21.5983 126.234 22.1538C126.261 22.8329 126.14 23.5099 125.879 24.1392C125.618 24.7685 125.222 25.3356 124.718 25.8022C123.601 26.7573 122.151 27.2535 120.67 27.1877C119.725 27.203 118.786 27.0351 117.908 26.6935C117.06 26.329 116.284 25.8209 115.615 25.1926C115.586 25.1663 115.567 25.1308 115.561 25.0921C115.555 25.0534 115.562 25.0139 115.582 24.9801L117.183 22.4171Z" fill="white"/>
<path d="M128.461 26.6658V12.7512C128.461 12.7071 128.479 12.6648 128.511 12.6336C128.542 12.6025 128.585 12.5849 128.63 12.5849H132.25C132.295 12.5849 132.338 12.6025 132.37 12.6336C132.401 12.6648 132.419 12.7071 132.419 12.7512V18.1222H137.705V12.7512C137.705 12.7071 137.723 12.6648 137.755 12.6336C137.786 12.6025 137.83 12.5849 137.874 12.5849H141.494C141.539 12.5849 141.582 12.6025 141.614 12.6336C141.646 12.6648 141.663 12.7071 141.663 12.7512V26.6658C141.663 26.7099 141.646 26.7523 141.614 26.7834C141.582 26.8146 141.539 26.8321 141.494 26.8321H137.874C137.83 26.8321 137.786 26.8146 137.755 26.7834C137.723 26.7523 137.705 26.7099 137.705 26.6658V21.0316H132.419V26.6658C132.419 26.7099 132.401 26.7523 132.37 26.7834C132.338 26.8146 132.295 26.8321 132.25 26.8321H128.63C128.585 26.8321 128.542 26.8146 128.511 26.7834C128.479 26.7523 128.461 26.7099 128.461 26.6658Z" fill="white"/>
<path d="M144.848 26.6658V12.7512C144.848 12.7071 144.866 12.6648 144.897 12.6336C144.929 12.6025 144.972 12.5849 145.017 12.5849H148.674C148.719 12.5849 148.762 12.6025 148.794 12.6336C148.826 12.6648 148.844 12.7071 148.844 12.7512V26.6658C148.844 26.7099 148.826 26.7523 148.794 26.7834C148.762 26.8146 148.719 26.8321 148.674 26.8321H145.017C144.972 26.8321 144.929 26.8146 144.897 26.7834C144.866 26.7523 144.848 26.7099 144.848 26.6658Z" fill="white"/>
<path d="M152.041 26.6658V12.5849H160.767C160.812 12.5849 160.855 12.6025 160.887 12.6336C160.919 12.6648 160.937 12.7071 160.937 12.7512V15.5498C160.937 15.5939 160.919 15.6362 160.887 15.6674C160.855 15.6986 160.812 15.7161 160.767 15.7161H155.886V18.1776H160.471C160.516 18.1776 160.559 18.1951 160.591 18.2263C160.622 18.2575 160.64 18.2997 160.64 18.3438V21.0778C160.64 21.1219 160.622 21.1642 160.591 21.1954C160.559 21.2265 160.516 21.2441 160.471 21.2441H155.886V26.6658C155.886 26.7099 155.869 26.7523 155.837 26.7834C155.805 26.8146 155.762 26.8321 155.717 26.8321H152.201C152.158 26.8297 152.117 26.8112 152.087 26.7803C152.057 26.7494 152.041 26.7084 152.041 26.6658Z" fill="white"/>
<path d="M178.01 19.7397C178.017 20.7305 177.826 21.713 177.445 22.6307C177.051 23.5302 176.478 24.3435 175.76 25.023C175.029 25.7178 174.167 26.2668 173.223 26.6393C172.28 27.0114 171.274 27.2056 170.258 27.212C169.241 27.2083 168.234 27.014 167.292 26.6393C166.351 26.2722 165.494 25.7225 164.774 25.023C164.051 24.3386 163.478 23.5168 163.089 22.6076C162.696 21.7007 162.495 20.7251 162.496 19.7397C162.495 18.7528 162.696 17.7757 163.089 16.8672C163.478 15.9581 164.051 15.1362 164.774 14.4519C165.493 13.7469 166.35 13.1909 167.292 12.817C168.235 12.4447 169.242 12.2565 170.258 12.2629C171.28 12.2567 172.294 12.4465 173.242 12.8216C174.18 13.1979 175.034 13.7519 175.755 14.4519C176.473 15.1419 177.047 15.9622 177.445 16.8672C177.825 17.7787 178.017 18.755 178.01 19.7397ZM170.253 23.9238C170.771 23.9324 171.284 23.8297 171.757 23.6231C172.231 23.4165 172.652 23.1109 172.992 22.7277C173.349 22.3414 173.622 21.8871 173.792 21.3931C173.972 20.86 174.06 20.3011 174.051 19.7397C174.088 18.6453 173.701 17.5779 172.969 16.7517C172.633 16.3685 172.216 16.0623 171.747 15.8548C171.278 15.6473 170.768 15.5436 170.253 15.551C169.735 15.5389 169.222 15.6405 168.749 15.8482C168.277 16.056 167.858 16.3647 167.523 16.7517C166.799 17.5816 166.417 18.6477 166.455 19.7397C166.403 20.8362 166.778 21.9109 167.504 22.7462C167.845 23.1267 168.268 23.4294 168.741 23.6328C169.214 23.8363 169.727 23.9356 170.243 23.9238H170.253Z" fill="white"/>
<path d="M62.8652 38.7875V30.8257H63.9996V35.9381L66.0799 33.9199H67.492L65.2422 36.0673L67.7038 38.7875H66.24L64.009 36.2752V38.7875H62.8652Z" fill="white"/>
<path d="M68.4531 38.7875V30.8257H69.5875V38.7875H68.4531Z" fill="white"/>
<path d="M71.1133 31.8123C71.1124 31.7208 71.1307 31.6301 71.1672 31.5459C71.2036 31.4617 71.2574 31.3857 71.3251 31.3228C71.3908 31.2575 71.4693 31.2058 71.5558 31.1709C71.6424 31.136 71.7352 31.1186 71.8288 31.1196C71.9217 31.1165 72.0144 31.1322 72.101 31.1656C72.1876 31.1989 72.2663 31.2493 72.3324 31.3136C72.3991 31.3787 72.4515 31.4566 72.4863 31.5424C72.5211 31.6282 72.5376 31.72 72.5348 31.8123C72.5376 31.9046 72.5211 31.9965 72.4863 32.0823C72.4515 32.1681 72.3991 32.246 72.3324 32.3111C72.2675 32.3775 72.1891 32.4299 72.1024 32.4649C72.0157 32.4999 71.9225 32.5167 71.8288 32.5143C71.7347 32.5156 71.6415 32.4978 71.5548 32.462C71.4681 32.4262 71.3899 32.3733 71.3251 32.3065C71.2575 32.2425 71.2038 32.1658 71.1674 32.0808C71.131 31.9958 71.1126 31.9045 71.1133 31.8123ZM71.2639 38.7858V33.9183H72.3983V38.7858H71.2639Z" fill="white"/>
<path d="M74.0234 38.787V33.9195H75.0919V34.7138C75.2908 34.4064 75.5662 34.1537 75.8921 33.9795C76.2416 33.8167 76.6255 33.7376 77.0123 33.7486C77.3346 33.7427 77.6548 33.8009 77.9536 33.9195C78.2034 34.0274 78.4147 34.2059 78.5608 34.4321C78.6521 34.5733 78.7159 34.7299 78.749 34.8939C78.7951 35.1996 78.814 35.5087 78.8055 35.8176V38.7686H77.6618V36.2701C77.706 35.8301 77.6228 35.3867 77.4218 34.9909C77.317 34.8765 77.1858 34.7883 77.0393 34.7337C76.8927 34.679 76.735 34.6595 76.5792 34.6768C76.3344 34.6713 76.0914 34.7203 75.8685 34.82C75.677 34.9112 75.5144 35.0517 75.3978 35.2264C75.304 35.365 75.2444 35.5231 75.2237 35.6882C75.1828 35.9789 75.1655 36.2723 75.1719 36.5657V38.7824L74.0234 38.787Z" fill="white"/>
<path d="M80.2266 31.8123C80.2257 31.7208 80.244 31.6301 80.2804 31.5459C80.3169 31.4617 80.3706 31.3857 80.4384 31.3228C80.5044 31.2579 80.583 31.2065 80.6695 31.1716C80.7559 31.1368 80.8486 31.1191 80.942 31.1196C81.035 31.1165 81.1277 31.1322 81.2143 31.1656C81.3009 31.1989 81.3796 31.2493 81.4456 31.3136C81.5124 31.3787 81.5648 31.4566 81.5996 31.5424C81.6344 31.6282 81.6509 31.72 81.648 31.8123C81.6509 31.9046 81.6344 31.9965 81.5996 32.0823C81.5648 32.1681 81.5124 32.246 81.4456 32.3111C81.3807 32.3775 81.3024 32.4299 81.2157 32.4649C81.129 32.4999 81.0358 32.5167 80.942 32.5143C80.8481 32.515 80.755 32.4969 80.6684 32.4612C80.5818 32.4255 80.5036 32.3728 80.4384 32.3065C80.3707 32.2425 80.3171 32.1658 80.2807 32.0808C80.2442 31.9958 80.2259 31.9045 80.2266 31.8123ZM80.3772 38.7858V33.9183H81.5115V38.7858H80.3772Z" fill="white"/>
<path d="M83.1348 38.7875V30.8257H84.2738V35.9381L86.3495 33.9199H87.7615L85.5116 36.0673L87.978 38.7875H86.5095L84.2832 36.2752V38.7875H83.1348Z" fill="white"/>
<path d="M93.3393 38.7869H92.2002V38.1542C92.0194 38.4159 91.7773 38.6313 91.4942 38.7822C91.2024 38.9258 90.8792 38.9972 90.5528 38.9901C90.24 39.0041 89.9281 38.9478 89.641 38.8253C89.3538 38.7028 89.099 38.5175 88.8961 38.2835C88.468 37.7289 88.2545 37.0431 88.2936 36.3484C88.2623 35.6681 88.4811 34.9995 88.9102 34.4642C89.1063 34.2326 89.3537 34.0478 89.6334 33.9238C89.9131 33.7998 90.2178 33.7398 90.5246 33.7484C90.8864 33.7381 91.2443 33.8243 91.5601 33.9978C91.8462 34.1602 92.0684 34.4124 92.1908 34.7136V33.9193H93.3298L93.3393 38.7869ZM92.2332 36.3393C92.26 35.9175 92.1332 35.5001 91.8755 35.1616C91.7524 35.0208 91.5979 34.9097 91.4241 34.8369C91.2503 34.764 91.0617 34.7313 90.8729 34.7413C90.6815 34.7322 90.4906 34.7667 90.3151 34.842C90.1395 34.9173 89.9841 35.0314 89.8609 35.1755C89.5928 35.5201 89.4608 35.9482 89.4892 36.3808C89.4635 36.8081 89.5899 37.2309 89.8468 37.5769C89.9709 37.7178 90.1262 37.8289 90.3008 37.9017C90.4754 37.9746 90.6646 38.0072 90.8541 37.9972C91.0448 38.0011 91.2338 37.9615 91.4062 37.8813C91.5786 37.8012 91.7296 37.6827 91.8472 37.5354C92.1167 37.1943 92.2535 36.7703 92.2332 36.3393Z" fill="white"/>
<path d="M94.3379 37.9054L95.2792 37.402C95.3378 37.6266 95.4764 37.8233 95.6699 37.9562C95.8865 38.0897 96.1392 38.1557 96.3947 38.1455C96.6096 38.1578 96.8222 38.0975 96.9972 37.9747C97.0663 37.9186 97.1217 37.8479 97.1591 37.768C97.1966 37.6881 97.2152 37.6008 97.2137 37.5128C97.2137 37.2511 96.9548 37.0249 96.4371 36.834C96.2629 36.7739 96.1312 36.7232 96.037 36.6816C95.6245 36.5379 95.2453 36.3149 94.9215 36.0258C94.7124 35.8056 94.5993 35.5139 94.6062 35.213C94.6012 35.0086 94.646 34.8061 94.7369 34.6221C94.8277 34.4382 94.962 34.2781 95.1287 34.1554C95.5264 33.8671 96.0139 33.7235 96.5077 33.749C96.8478 33.7399 97.1853 33.8112 97.4915 33.9568C97.7528 34.0839 97.9644 34.2915 98.0939 34.548L97.2843 35.0929C97.2279 34.9392 97.1178 34.81 96.9737 34.7281C96.8198 34.6345 96.6417 34.5864 96.4606 34.5895C96.2739 34.5807 96.0897 34.6344 95.9382 34.7419C95.8749 34.7885 95.8238 34.8493 95.7894 34.9192C95.755 34.9891 95.7383 35.0661 95.7405 35.1437C95.7405 35.3977 96.037 35.6055 96.6207 35.8411C96.8042 35.9057 96.9501 35.9566 97.049 35.9981C97.4203 36.1222 97.7571 36.3292 98.0327 36.6031C98.2347 36.8373 98.3404 37.137 98.3292 37.4436C98.3372 37.6621 98.2922 37.8795 98.1982 38.0777C98.1041 38.276 97.9636 38.4496 97.788 38.5843C97.3541 38.8833 96.83 39.0298 96.3006 39C95.8808 39.013 95.4644 38.9208 95.091 38.7321C94.7596 38.5387 94.4967 38.2501 94.3379 37.9054Z" fill="white"/>
<path d="M99.375 31.8123C99.3741 31.7208 99.3924 31.6301 99.4289 31.5459C99.4653 31.4616 99.5191 31.3857 99.5868 31.3227C99.6529 31.2578 99.7314 31.2065 99.8178 31.1716C99.9043 31.1367 99.9969 31.119 100.09 31.1196C100.184 31.1167 100.277 31.1324 100.365 31.1657C100.452 31.199 100.532 31.2493 100.599 31.3136C100.665 31.3793 100.716 31.4572 100.751 31.5429C100.786 31.6285 100.803 31.7201 100.801 31.8123C100.803 31.9049 100.786 31.9969 100.75 32.0827C100.715 32.1684 100.661 32.2462 100.594 32.311C100.53 32.3779 100.451 32.4307 100.364 32.4657C100.278 32.5007 100.184 32.5173 100.09 32.5143C99.9965 32.515 99.9034 32.4969 99.8168 32.4612C99.7302 32.4254 99.652 32.3728 99.5868 32.3064C99.5192 32.2425 99.4655 32.1657 99.4291 32.0808C99.3927 31.9958 99.3743 31.9045 99.375 31.8123ZM99.5256 38.7858V33.9182H100.665V38.7858H99.5256Z" fill="white"/>
<path d="M93.3402 7.50394L90.7233 11.2262C90.6433 11.3925 90.6268 11.5815 90.6769 11.7586C90.727 11.9358 90.8404 12.0894 90.9963 12.1914L92.1259 13.1151C92.2556 13.2496 92.4308 13.3332 92.6188 13.3502C92.8068 13.3672 92.9946 13.3164 93.1472 13.2074L96.3432 9.97467C96.5879 9.7299 96.4844 9.26349 96.1172 8.95869L94.4087 7.54092C94.0368 7.2315 93.5426 7.21299 93.3402 7.50394Z" fill="white"/>
</g>
<defs>
<clipPath id="clip0_448_241">
<rect width="48.5423" height="50.185" fill="white"/>
</clipPath>
<clipPath id="clip1_448_241">
<rect width="115.203" height="32.1566" fill="white" transform="translate(62.7969 7.29688)"/>
</clipPath>
</defs>
</svg>
