<svg width="178" height="51" viewBox="0 0 178 51" fill="none" xmlns="http://www.w3.org/2000/svg">
<g clip-path="url(#clip0_374_152)">
<path fill-rule="evenodd" clip-rule="evenodd" d="M19.1449 20.0553L7.41505 8.54619C7.2513 8.38693 7.05587 8.26249 6.84092 8.18065C6.62596 8.09882 6.3961 8.06134 6.16572 8.07055C5.93535 8.07976 5.70942 8.13546 5.50196 8.23418C5.29451 8.33291 5.10997 8.47253 4.95996 8.64433C2.81902 11.0614 1.16933 13.8581 0.0998537 16.8836C0.0229288 17.0974 -0.00826705 17.3244 0.00817022 17.5505C0.0246075 17.7767 0.0882997 17.9971 0.195366 18.1979C0.302433 18.3988 0.450578 18.5759 0.630474 18.7182C0.810371 18.8605 1.01819 18.9648 1.24101 19.0248L17.3126 23.2493L17.59 23.3207C17.7069 23.3424 17.8256 23.3529 17.9446 23.3519C18.246 23.3527 18.5432 23.2827 18.8114 23.1476C19.0795 23.0126 19.3108 22.8165 19.4859 22.5757L19.5768 22.4151L19.6768 22.259C19.7866 22.0159 19.8438 21.7531 19.845 21.4872C19.8379 21.0534 19.6772 20.6354 19.3904 20.3051L19.1449 20.0553Z" fill="#023361"/>
<path fill-rule="evenodd" clip-rule="evenodd" d="M19.4184 0.450228C19.1916 0.491794 18.976 0.578804 18.7851 0.705836C18.5941 0.832868 18.4319 0.99719 18.3086 1.18852C18.1853 1.37985 18.1035 1.59408 18.0684 1.81782C18.0333 2.04156 18.0456 2.27 18.1045 2.48886L22.4009 18.2313L22.4918 18.5525C22.6142 18.8826 22.8295 19.1719 23.1128 19.3867C23.3961 19.6015 23.7357 19.733 24.0922 19.7659H24.4559C24.8121 19.7326 25.1516 19.6016 25.4354 19.3878C25.7192 19.174 25.936 18.886 26.0608 18.557L26.1472 18.2313L30.4481 2.48886C30.5063 2.27002 30.5181 2.04176 30.4827 1.81827C30.4473 1.59477 30.3654 1.3808 30.2422 1.18963C30.119 0.99847 29.9571 0.834188 29.7664 0.706993C29.5758 0.579798 29.3606 0.492404 29.1342 0.450228C25.9245 -0.150768 22.628 -0.150768 19.4184 0.450228Z" fill="#023361"/>
<path fill-rule="evenodd" clip-rule="evenodd" d="M31.2512 23.2541L47.3092 19.0341C47.532 18.9741 47.7399 18.8697 47.9198 18.7274C48.0997 18.5852 48.2478 18.4081 48.3549 18.2072C48.4619 18.0063 48.5257 17.7859 48.5421 17.5598C48.5586 17.3336 48.5273 17.1066 48.4504 16.8928C47.3798 13.8651 45.7303 11.0657 43.5903 8.64464C43.4399 8.47272 43.2549 8.33302 43.0471 8.23425C42.8393 8.13548 42.6129 8.07975 42.3822 8.07055C42.1514 8.06134 41.9213 8.09885 41.7059 8.18073C41.4906 8.26262 41.2948 8.38713 41.1306 8.5465L29.369 20.0913L29.1871 20.2653C28.8896 20.6086 28.7282 21.0458 28.7325 21.4965C28.7315 21.7928 28.8032 22.0851 28.9416 22.3485L28.9871 22.4243C29.005 22.4511 29.0202 22.4795 29.0326 22.5091C29.2059 22.7706 29.4431 22.9855 29.7226 23.1343C30.0021 23.2831 30.315 23.3611 30.6329 23.3611C30.7503 23.3598 30.8674 23.3493 30.983 23.3299L31.2512 23.2541Z" fill="#023361"/>
<path fill-rule="evenodd" clip-rule="evenodd" d="M20.4369 28.8524C20.1409 28.5633 19.88 28.2414 19.6595 27.8933L19.5731 27.7505L19.4958 27.6167C19.3212 27.3711 19.0886 27.1706 18.8178 27.0323C18.547 26.894 18.2462 26.8221 17.9409 26.8227C17.7875 26.8235 17.6348 26.843 17.4863 26.8807H17.4499L1.26465 31.1364C1.04158 31.1953 0.833319 31.2989 0.652941 31.4405C0.472563 31.5821 0.323949 31.7587 0.21639 31.9593C0.108831 32.16 0.0446316 32.3802 0.0278617 32.6063C0.0110918 32.8323 0.0421132 33.0594 0.118935 33.2731C0.651239 34.7847 1.33024 36.2427 2.14663 37.627C4.38243 41.4371 7.59562 44.6068 11.4668 46.8208C14.7325 48.6693 18.3742 49.7869 22.1313 50.0935C25.8885 50.4002 29.6684 49.8885 33.2005 48.5949C36.7326 47.3013 39.9297 45.2578 42.5631 42.6106C45.1966 39.9634 47.2013 36.778 48.4339 33.2821C48.5108 33.0686 48.542 32.8418 48.5255 32.616C48.509 32.3902 48.4452 32.1701 48.3381 31.9696C48.231 31.769 48.0829 31.5923 47.903 31.4505C47.7231 31.3086 47.5154 31.2047 47.2927 31.1453L31.1893 26.9119L30.9983 26.8628C30.6166 26.7838 30.2194 26.8214 29.8601 26.9706C29.5009 27.1197 29.1968 27.3732 28.9888 27.697L28.9569 27.7505C28.9569 27.7728 28.957 27.7907 28.9251 27.8085C28.6933 28.1892 28.4138 28.5399 28.0931 28.8524C27.7599 29.1838 27.3821 29.469 26.9701 29.7C25.9357 30.2873 24.7324 30.5226 23.5476 30.3693C22.3627 30.216 21.2627 29.6827 20.4187 28.8524H20.4369Z" fill="#3ED79F"/>
</g>
<g clip-path="url(#clip1_374_152)">
<path d="M62.7969 26.6658V12.7512C62.7969 12.7071 62.8147 12.6648 62.8465 12.6336C62.8783 12.6025 62.9214 12.5849 62.9663 12.5849H66.5482C66.5931 12.5849 66.6362 12.6025 66.668 12.6336C66.6998 12.6648 66.7176 12.7071 66.7176 12.7512V19.055L71.2596 12.6542C71.2743 12.632 71.2946 12.614 71.3186 12.6018C71.3425 12.5897 71.3692 12.5839 71.3961 12.5849H75.5805C75.6115 12.5851 75.6419 12.5937 75.6684 12.6097C75.6948 12.6258 75.7163 12.6486 75.7304 12.6758C75.7445 12.703 75.7507 12.7334 75.7483 12.7638C75.7459 12.7942 75.7351 12.8234 75.717 12.8482L70.5395 19.5307L76.1594 26.5643C76.1786 26.5887 76.1905 26.6179 76.1938 26.6486C76.1971 26.6794 76.1916 26.7104 76.1779 26.7382C76.1642 26.766 76.1429 26.7895 76.1164 26.8061C76.0898 26.8227 76.0591 26.8317 76.0276 26.8321H71.5185C71.492 26.8312 71.4659 26.8246 71.4423 26.8126C71.4187 26.8006 71.3981 26.7836 71.382 26.7629L66.7035 20.4359V26.6658C66.7035 26.7099 66.6856 26.7523 66.6539 26.7834C66.6221 26.8146 66.579 26.8321 66.5341 26.8321H62.9522C62.9098 26.8286 62.8702 26.8096 62.8414 26.7788C62.8126 26.7479 62.7967 26.7076 62.7969 26.6658Z" fill="#023361"/>
<path d="M92.442 19.7392C92.4483 20.7302 92.2547 21.7128 91.8725 22.6302C91.4787 23.5296 90.9058 24.343 90.1875 25.0224C89.4565 25.7173 88.5949 26.2662 87.6506 26.6388C86.7091 27.0104 85.7048 27.2046 84.69 27.2114C83.6734 27.2078 82.667 27.0134 81.7248 26.6388C80.7817 26.2743 79.9247 25.7243 79.2066 25.0224C78.482 24.3393 77.9085 23.5171 77.5216 22.6071C77.1251 21.7012 76.9216 20.7251 76.9238 19.7392C76.9217 18.7517 77.1251 17.7742 77.5216 16.8667C77.9085 15.9566 78.482 15.1345 79.2066 14.4513C79.9249 13.7452 80.7815 13.189 81.7248 12.8165C82.6668 12.4434 83.6742 12.2551 84.69 12.2623C85.7108 12.2561 86.723 12.4459 87.6694 12.8211C88.6094 13.1951 89.4639 13.7493 90.1828 14.4513C90.9034 15.1388 91.4777 15.9598 91.8725 16.8667C92.2538 17.7779 92.4474 18.7542 92.442 19.7392ZM84.6806 23.9233C85.1984 23.9318 85.7119 23.8292 86.1851 23.6226C86.6583 23.416 87.0798 23.1104 87.42 22.7272C87.7769 22.3398 88.0506 21.8859 88.2248 21.3925C88.4023 20.8589 88.4897 20.3004 88.4837 19.7392C88.5179 18.6451 88.1314 17.5785 87.4011 16.7512C87.0649 16.3679 86.647 16.0616 86.1769 15.8542C85.7068 15.6467 85.196 15.543 84.6806 15.5505C84.1639 15.5388 83.651 15.6405 83.1795 15.8482C82.708 16.056 82.2898 16.3645 81.9554 16.7512C81.2277 17.5794 80.8445 18.6462 80.8823 19.7392C80.8326 20.8362 81.2095 21.9108 81.9366 22.7456C82.2778 23.1275 82.7005 23.4311 83.1748 23.6346C83.649 23.8381 84.1631 23.9367 84.6806 23.9233Z" fill="#023361"/>
<path d="M107.39 26.8327H95.035C95.0043 26.8328 94.9741 26.8246 94.9478 26.8092C94.9214 26.7937 94.8998 26.7715 94.8853 26.745C94.8708 26.7184 94.8639 26.6885 94.8654 26.6584C94.8669 26.6283 94.8767 26.5992 94.8938 26.5741L102.053 15.6705H96.3388C96.2942 15.6694 96.2518 15.6515 96.2202 15.6205C96.1887 15.5896 96.1705 15.548 96.1693 15.5043V12.7334C96.1693 12.6893 96.1871 12.6469 96.2189 12.6158C96.2507 12.5846 96.2938 12.5671 96.3388 12.5671H108.082C108.112 12.5676 108.141 12.5758 108.167 12.591C108.193 12.6062 108.214 12.6279 108.228 12.6537C108.243 12.6795 108.25 12.7086 108.249 12.738C108.248 12.7674 108.239 12.7961 108.223 12.8211L101.083 23.7108H107.39C107.435 23.7108 107.478 23.7283 107.51 23.7595C107.542 23.7907 107.56 23.833 107.56 23.8771V26.648C107.562 26.6713 107.56 26.6949 107.553 26.7173C107.545 26.7397 107.533 26.7602 107.517 26.7777C107.501 26.7951 107.482 26.8091 107.46 26.8185C107.438 26.828 107.414 26.8328 107.39 26.8327Z" fill="#023361"/>
<path d="M117.183 22.4171C117.196 22.3947 117.215 22.3758 117.237 22.3619C117.259 22.348 117.284 22.3396 117.311 22.3373C117.337 22.335 117.363 22.339 117.388 22.3489C117.412 22.3588 117.434 22.3742 117.451 22.394C117.915 22.9005 118.451 23.3392 119.042 23.6964C119.556 24.0048 120.144 24.1737 120.746 24.1859C121.216 24.2036 121.677 24.0544 122.045 23.7657C122.208 23.6397 122.34 23.4782 122.429 23.2939C122.518 23.1095 122.562 22.9074 122.558 22.7035C122.569 22.5014 122.537 22.2993 122.464 22.1101C122.391 21.9208 122.279 21.7486 122.134 21.6043C121.519 21.2204 120.836 20.9541 120.12 20.8192C118.708 20.4406 117.71 19.9556 117.122 19.3553C116.5 18.6741 116.178 17.7791 116.227 16.866C116.207 16.2443 116.322 15.6254 116.565 15.051C116.809 14.4766 117.175 13.9602 117.639 13.5363C118.124 13.0977 118.693 12.7577 119.313 12.5357C119.932 12.3138 120.59 12.2144 121.249 12.2432C122.021 12.2339 122.789 12.3414 123.527 12.5619C124.204 12.7676 124.848 13.0627 125.443 13.4393C125.478 13.4604 125.503 13.493 125.515 13.5312C125.528 13.5694 125.525 13.6105 125.509 13.6472L124.412 16.1133C124.401 16.1357 124.385 16.1553 124.365 16.1707C124.345 16.186 124.321 16.1968 124.296 16.2022C124.272 16.2075 124.246 16.2072 124.221 16.2014C124.196 16.1956 124.173 16.1844 124.153 16.1687C123.783 15.8762 123.372 15.6354 122.934 15.4529C122.487 15.2707 122.007 15.175 121.522 15.1711C121.107 15.156 120.698 15.2762 120.36 15.5129C120.219 15.6078 120.104 15.7355 120.026 15.8847C119.948 16.0338 119.909 16.1997 119.913 16.3673C119.909 16.5299 119.942 16.6912 120.01 16.8397C120.078 16.9881 120.178 17.1202 120.303 17.2263C120.769 17.5216 121.286 17.7298 121.828 17.8405H121.899C121.929 17.8363 121.959 17.8363 121.988 17.8405C123.601 18.2623 124.666 18.7364 125.184 19.2629C125.537 19.6208 125.807 20.0493 125.975 20.5191C126.156 21.0455 126.243 21.5984 126.234 22.1539C126.261 22.8329 126.14 23.5099 125.879 24.1393C125.618 24.7686 125.222 25.3357 124.718 25.8023C123.601 26.7574 122.151 27.2535 120.67 27.1877C119.725 27.2031 118.786 27.0352 117.908 26.6936C117.06 26.329 116.284 25.821 115.615 25.1927C115.586 25.1663 115.567 25.1308 115.561 25.0922C115.555 25.0535 115.562 25.014 115.582 24.9802L117.183 22.4171Z" fill="#023361"/>
<path d="M128.461 26.6657V12.7511C128.461 12.707 128.479 12.6647 128.511 12.6335C128.542 12.6023 128.585 12.5848 128.63 12.5848H132.25C132.295 12.5848 132.338 12.6023 132.37 12.6335C132.401 12.6647 132.419 12.707 132.419 12.7511V18.122H137.705V12.7511C137.705 12.707 137.723 12.6647 137.755 12.6335C137.786 12.6023 137.83 12.5848 137.874 12.5848H141.494C141.539 12.5848 141.582 12.6023 141.614 12.6335C141.646 12.6647 141.663 12.707 141.663 12.7511V26.6657C141.663 26.7098 141.646 26.7521 141.614 26.7833C141.582 26.8145 141.539 26.832 141.494 26.832H137.874C137.83 26.832 137.786 26.8145 137.755 26.7833C137.723 26.7521 137.705 26.7098 137.705 26.6657V21.0315H132.419V26.6657C132.419 26.7098 132.401 26.7521 132.37 26.7833C132.338 26.8145 132.295 26.832 132.25 26.832H128.63C128.585 26.832 128.542 26.8145 128.511 26.7833C128.479 26.7521 128.461 26.7098 128.461 26.6657Z" fill="#023361"/>
<path d="M144.848 26.6657V12.7511C144.848 12.707 144.866 12.6647 144.897 12.6335C144.929 12.6023 144.972 12.5848 145.017 12.5848H148.674C148.719 12.5848 148.762 12.6023 148.794 12.6335C148.826 12.6647 148.844 12.707 148.844 12.7511V26.6657C148.844 26.7098 148.826 26.7521 148.794 26.7833C148.762 26.8145 148.719 26.832 148.674 26.832H145.017C144.972 26.832 144.929 26.8145 144.897 26.7833C144.866 26.7521 144.848 26.7098 144.848 26.6657Z" fill="#023361"/>
<path d="M152.041 26.6657V12.5848H160.767C160.812 12.5848 160.855 12.6023 160.887 12.6335C160.919 12.6647 160.937 12.707 160.937 12.7511V15.5497C160.937 15.5938 160.919 15.6361 160.887 15.6673C160.855 15.6984 160.812 15.716 160.767 15.716H155.886V18.1775H160.471C160.516 18.1775 160.559 18.195 160.591 18.2262C160.622 18.2573 160.64 18.2996 160.64 18.3437V21.0777C160.64 21.1218 160.622 21.1641 160.591 21.1952C160.559 21.2264 160.516 21.2439 160.471 21.2439H155.886V26.6657C155.886 26.7098 155.869 26.7521 155.837 26.7833C155.805 26.8145 155.762 26.832 155.717 26.832H152.201C152.158 26.8296 152.117 26.8111 152.087 26.7802C152.057 26.7492 152.041 26.7083 152.041 26.6657Z" fill="#023361"/>
<path d="M178.01 19.7398C178.017 20.7306 177.826 21.7131 177.445 22.6308C177.051 23.5303 176.478 24.3436 175.76 25.0231C175.029 25.7179 174.167 26.2669 173.223 26.6394C172.28 27.0115 171.274 27.2057 170.258 27.2121C169.241 27.2084 168.234 27.014 167.292 26.6394C166.351 26.2723 165.494 25.7226 164.774 25.0231C164.051 24.3387 163.478 23.5169 163.089 22.6077C162.696 21.7008 162.495 20.7252 162.496 19.7398C162.495 18.7529 162.696 17.7758 163.089 16.8673C163.478 15.9582 164.051 15.1363 164.774 14.452C165.493 13.747 166.35 13.191 167.292 12.8171C168.235 12.4448 169.242 12.2566 170.258 12.2629C171.28 12.2568 172.294 12.4466 173.242 12.8217C174.18 13.198 175.034 13.7519 175.755 14.452C176.473 15.142 177.047 15.9623 177.445 16.8673C177.825 17.7788 178.017 18.7551 178.01 19.7398ZM170.253 23.9239C170.771 23.9325 171.284 23.8298 171.757 23.6232C172.231 23.4166 172.652 23.111 172.992 22.7278C173.349 22.3415 173.622 21.8872 173.792 21.3931C173.972 20.8601 174.06 20.3012 174.051 19.7398C174.088 18.6454 173.701 17.578 172.969 16.7518C172.633 16.3686 172.216 16.0624 171.747 15.8549C171.278 15.6474 170.768 15.5437 170.253 15.5511C169.735 15.539 169.222 15.6406 168.749 15.8483C168.277 16.0561 167.858 16.3648 167.523 16.7518C166.799 17.5817 166.417 18.6477 166.455 19.7398C166.403 20.8363 166.778 21.911 167.504 22.7463C167.845 23.1268 168.268 23.4295 168.741 23.6329C169.214 23.8364 169.727 23.9357 170.243 23.9239H170.253Z" fill="#023361"/>
<path d="M62.8652 38.7875V30.8257H63.9996V35.9381L66.0799 33.9199H67.492L65.2422 36.0673L67.7038 38.7875H66.24L64.009 36.2752V38.7875H62.8652Z" fill="#023361"/>
<path d="M68.4531 38.7875V30.8257H69.5875V38.7875H68.4531Z" fill="#023361"/>
<path d="M71.1133 31.8122C71.1124 31.7207 71.1307 31.63 71.1672 31.5458C71.2036 31.4616 71.2574 31.3856 71.3251 31.3227C71.3908 31.2573 71.4693 31.2057 71.5558 31.1708C71.6424 31.1359 71.7352 31.1184 71.8288 31.1195C71.9217 31.1164 72.0144 31.1321 72.101 31.1654C72.1876 31.1988 72.2663 31.2492 72.3324 31.3135C72.3991 31.3786 72.4515 31.4564 72.4863 31.5422C72.5211 31.628 72.5376 31.7199 72.5348 31.8122C72.5376 31.9045 72.5211 31.9964 72.4863 32.0822C72.4515 32.168 72.3991 32.2459 72.3324 32.311C72.2675 32.3774 72.1891 32.4298 72.1024 32.4648C72.0157 32.4998 71.9225 32.5166 71.8288 32.5142C71.7347 32.5155 71.6415 32.4976 71.5548 32.4619C71.4681 32.4261 71.3899 32.3731 71.3251 32.3063C71.2575 32.2424 71.2038 32.1656 71.1674 32.0807C71.131 31.9957 71.1126 31.9044 71.1133 31.8122ZM71.2639 38.7857V33.9181H72.3983V38.7857H71.2639Z" fill="#023361"/>
<path d="M74.0234 38.7871V33.9196H75.0919V34.7139C75.2908 34.4065 75.5662 34.1538 75.8921 33.9795C76.2416 33.8168 76.6255 33.7376 77.0123 33.7486C77.3346 33.7427 77.6548 33.8009 77.9536 33.9196C78.2034 34.0275 78.4147 34.2059 78.5608 34.4322C78.6521 34.5734 78.7159 34.73 78.749 34.894C78.7951 35.1997 78.814 35.5087 78.8055 35.8176V38.7687H77.6618V36.2702C77.706 35.8301 77.6228 35.3867 77.4218 34.991C77.317 34.8765 77.1858 34.7883 77.0393 34.7337C76.8927 34.6791 76.735 34.6596 76.5792 34.6769C76.3344 34.6714 76.0914 34.7204 75.8685 34.8201C75.677 34.9113 75.5144 35.0517 75.3978 35.2265C75.304 35.3651 75.2444 35.5232 75.2237 35.6883C75.1828 35.979 75.1655 36.2724 75.1719 36.5658V38.7825L74.0234 38.7871Z" fill="#023361"/>
<path d="M80.2266 31.8122C80.2257 31.7207 80.244 31.63 80.2804 31.5458C80.3169 31.4616 80.3706 31.3856 80.4384 31.3227C80.5044 31.2578 80.583 31.2064 80.6695 31.1715C80.7559 31.1366 80.8486 31.119 80.942 31.1195C81.035 31.1164 81.1277 31.1321 81.2143 31.1654C81.3009 31.1988 81.3796 31.2492 81.4456 31.3135C81.5124 31.3786 81.5648 31.4564 81.5996 31.5422C81.6344 31.628 81.6509 31.7199 81.648 31.8122C81.6509 31.9045 81.6344 31.9964 81.5996 32.0822C81.5648 32.168 81.5124 32.2459 81.4456 32.311C81.3807 32.3774 81.3024 32.4298 81.2157 32.4648C81.129 32.4998 81.0358 32.5166 80.942 32.5142C80.8481 32.5149 80.755 32.4968 80.6684 32.4611C80.5818 32.4254 80.5036 32.3727 80.4384 32.3063C80.3707 32.2424 80.3171 32.1656 80.2807 32.0807C80.2442 31.9957 80.2259 31.9044 80.2266 31.8122ZM80.3772 38.7857V33.9181H81.5115V38.7857H80.3772Z" fill="#023361"/>
<path d="M83.1348 38.7875V30.8257H84.2738V35.9381L86.3495 33.9199H87.7615L85.5116 36.0673L87.978 38.7875H86.5095L84.2832 36.2752V38.7875H83.1348Z" fill="#023361"/>
<path d="M93.3393 38.7869H92.2002V38.1542C92.0194 38.416 91.7773 38.6314 91.4942 38.7823C91.2024 38.9259 90.8792 38.9973 90.5528 38.9902C90.24 39.0042 89.9281 38.9479 89.641 38.8254C89.3538 38.7029 89.099 38.5176 88.8961 38.2836C88.468 37.7289 88.2545 37.0432 88.2936 36.3485C88.2623 35.6682 88.4811 34.9995 88.9102 34.4643C89.1063 34.2327 89.3537 34.0479 89.6334 33.9239C89.9131 33.7999 90.2178 33.7398 90.5246 33.7484C90.8864 33.7381 91.2443 33.8243 91.5601 33.9979C91.8462 34.1603 92.0684 34.4124 92.1908 34.7137V33.9194H93.3298L93.3393 38.7869ZM92.2332 36.3393C92.26 35.9176 92.1332 35.5002 91.8755 35.1616C91.7524 35.0209 91.5979 34.9098 91.4241 34.8369C91.2503 34.7641 91.0617 34.7313 90.8729 34.7414C90.6815 34.7323 90.4906 34.7668 90.3151 34.8421C90.1395 34.9174 89.9841 35.0315 89.8609 35.1755C89.5928 35.5201 89.4608 35.9482 89.4892 36.3809C89.4635 36.8082 89.5899 37.231 89.8468 37.577C89.9709 37.7178 90.1262 37.8289 90.3008 37.9018C90.4754 37.9746 90.6646 38.0073 90.8541 37.9972C91.0448 38.0012 91.2338 37.9615 91.4062 37.8814C91.5786 37.8012 91.7296 37.6828 91.8472 37.5354C92.1167 37.1944 92.2535 36.7704 92.2332 36.3393Z" fill="#023361"/>
<path d="M94.3379 37.905L95.2792 37.4017C95.3378 37.6263 95.4764 37.8229 95.6699 37.9559C95.8865 38.0894 96.1392 38.1554 96.3947 38.1452C96.6096 38.1575 96.8222 38.0972 96.9972 37.9743C97.0663 37.9182 97.1217 37.8476 97.1591 37.7677C97.1966 37.6877 97.2152 37.6005 97.2137 37.5125C97.2137 37.2508 96.9548 37.0245 96.4371 36.8336C96.2629 36.7736 96.1312 36.7228 96.037 36.6813C95.6245 36.5376 95.2453 36.3146 94.9215 36.0255C94.7124 35.8052 94.5993 35.5136 94.6062 35.2127C94.6012 35.0083 94.646 34.8057 94.7369 34.6218C94.8277 34.4378 94.962 34.2778 95.1287 34.1551C95.5264 33.8668 96.0139 33.7231 96.5077 33.7487C96.8478 33.7396 97.1853 33.8109 97.4915 33.9565C97.7528 34.0835 97.9644 34.2912 98.0939 34.5477L97.2843 35.0926C97.2279 34.9388 97.1178 34.8096 96.9737 34.7278C96.8198 34.6341 96.6417 34.586 96.4606 34.5892C96.2739 34.5804 96.0897 34.6341 95.9382 34.7416C95.8749 34.7881 95.8238 34.849 95.7894 34.9189C95.755 34.9888 95.7383 35.0658 95.7405 35.1434C95.7405 35.3974 96.037 35.6052 96.6207 35.8407C96.8042 35.9054 96.9501 35.9562 97.049 35.9978C97.4203 36.1218 97.7571 36.3289 98.0327 36.6027C98.2347 36.837 98.3404 37.1366 98.3292 37.4432C98.3372 37.6618 98.2922 37.8791 98.1982 38.0774C98.1041 38.2756 97.9636 38.4492 97.788 38.584C97.3541 38.883 96.83 39.0294 96.3006 38.9996C95.8808 39.0127 95.4644 38.9204 95.091 38.7317C94.7596 38.5383 94.4967 38.2498 94.3379 37.905Z" fill="#023361"/>
<path d="M99.375 31.8122C99.3741 31.7207 99.3924 31.63 99.4289 31.5458C99.4653 31.4615 99.5191 31.3855 99.5868 31.3226C99.6529 31.2577 99.7314 31.2064 99.8178 31.1715C99.9043 31.1366 99.9969 31.1189 100.09 31.1194C100.184 31.1166 100.277 31.1322 100.365 31.1656C100.452 31.1989 100.532 31.2492 100.599 31.3134C100.665 31.3792 100.716 31.4571 100.751 31.5428C100.786 31.6284 100.803 31.72 100.801 31.8122C100.803 31.9048 100.786 31.9968 100.75 32.0825C100.715 32.1683 100.661 32.246 100.594 32.3109C100.53 32.3778 100.451 32.4305 100.364 32.4656C100.278 32.5006 100.184 32.5172 100.09 32.5142C99.9965 32.5149 99.9034 32.4968 99.8168 32.461C99.7302 32.4253 99.652 32.3727 99.5868 32.3063C99.5192 32.2424 99.4655 32.1656 99.4291 32.0806C99.3927 31.9957 99.3743 31.9043 99.375 31.8122ZM99.5256 38.7857V33.9181H100.665V38.7857H99.5256Z" fill="#023361"/>
<path d="M93.3402 7.50382L90.7233 11.2261C90.6433 11.3924 90.6268 11.5813 90.6769 11.7585C90.727 11.9357 90.8404 12.0893 90.9963 12.1913L92.1259 13.115C92.2556 13.2495 92.4308 13.3331 92.6188 13.3501C92.8068 13.3671 92.9946 13.3163 93.1472 13.2073L96.3432 9.97455C96.5879 9.72978 96.4844 9.26337 96.1172 8.95857L94.4087 7.5408C94.0368 7.23138 93.5426 7.21287 93.3402 7.50382Z" fill="#023361"/>
</g>
<defs>
<clipPath id="clip0_374_152">
<rect width="48.5423" height="50.185" fill="white"/>
</clipPath>
<clipPath id="clip1_374_152">
<rect width="115.203" height="32.1566" fill="white" transform="translate(62.7969 7.29675)"/>
</clipPath>
</defs>
</svg>
