<svg width="130" height="108" viewBox="0 0 130 108" fill="none" xmlns="http://www.w3.org/2000/svg">
<path fill-rule="evenodd" clip-rule="evenodd" d="M64.1321 29.9711L25.7731 39.8598C25.2393 39.9949 24.6813 40.0192 24.1339 39.9309C23.5866 39.8427 23.0615 39.6439 22.5917 39.347C22.1219 39.0501 21.7173 38.6615 21.4032 38.2054C21.0891 37.7492 20.8722 37.2353 20.7661 36.6959C19.2099 29.0696 19.1368 21.2428 20.5507 13.6377C20.6478 13.0987 20.8563 12.5871 21.1632 12.1349C21.47 11.6826 21.8686 11.2993 22.3343 11.0089C22.7999 10.7186 23.3227 10.5274 23.8697 10.4473C24.4167 10.3671 24.9764 10.3997 25.5138 10.543L64.1568 21.0949L64.8218 21.2801C65.092 21.3756 65.3526 21.4969 65.5998 21.6424C66.23 22.0039 66.766 22.5084 67.1631 23.1135C67.5601 23.7186 67.8065 24.4068 67.8818 25.1204L67.878 25.5652L67.8987 26.0118C67.8347 26.6515 67.6376 27.2691 67.3197 27.8256C66.7819 28.7228 65.9426 29.4016 64.9458 29.7455L64.1321 29.9711Z" fill="#3ED69E" fill-opacity="0.15"/>
<path fill-rule="evenodd" clip-rule="evenodd" d="M41.0724 71.2286C40.649 70.8684 40.3038 70.427 40.0583 69.9316C39.8127 69.4362 39.6721 68.8977 39.6453 68.3496C39.6185 67.8016 39.706 67.2558 39.9023 66.7464C40.0987 66.237 40.3997 65.7749 40.7865 65.389L68.7299 37.7033L69.3068 37.1423C69.9602 36.6006 70.7583 36.2562 71.6086 36.1493C72.4589 36.0423 73.3264 36.1772 74.1102 36.5382L74.8694 36.9765C75.573 37.4753 76.1238 38.158 76.4586 38.9465C76.7935 39.7349 76.8989 40.5972 76.7628 41.4346L76.5507 42.2186L66.5552 80.2666C66.413 80.7936 66.1625 81.2843 65.8192 81.7082C65.4759 82.1321 65.0471 82.4802 64.5595 82.7307C64.0719 82.9813 63.5358 83.1291 62.9845 83.1648C62.4333 83.2006 61.8787 83.1237 61.3551 82.9388C53.9303 80.3249 47.0484 76.3517 41.0724 71.2286Z" fill="#3ED69E" fill-opacity="0.15"/>
<path fill-rule="evenodd" clip-rule="evenodd" d="M93.2616 37.8853L121.698 66.0495C122.091 66.4432 122.399 66.9117 122.603 67.4255C122.807 67.9393 122.903 68.4875 122.884 69.036C122.866 69.5844 122.733 70.1213 122.495 70.6132C122.257 71.1051 121.918 71.5414 121.5 71.895C115.615 76.9253 108.798 80.7813 101.412 83.2561C100.891 83.4338 100.337 83.5025 99.7836 83.4582C99.2307 83.4139 98.691 83.2574 98.1982 82.9985C97.7054 82.7397 97.2701 82.3839 96.9193 81.9534C96.5685 81.523 96.3097 81.027 96.1591 80.4965L85.5202 42.2193L85.3502 41.637C85.1429 40.5615 85.3328 39.4544 85.885 38.5187C86.2402 37.8988 86.7421 37.3752 87.3485 36.992L87.5349 36.8886C87.6045 36.8541 87.6704 36.8133 87.732 36.7664C88.4091 36.4294 89.1633 36.2666 89.926 36.2929C90.6888 36.3191 91.436 36.5335 92.0998 36.9166C92.3432 37.0608 92.575 37.2237 92.793 37.4037L93.2616 37.8853Z" fill="#3ED69E" fill-opacity="0.15"/>
</svg>
