<svg width="19" height="18" viewBox="0 0 19 18" fill="none" xmlns="http://www.w3.org/2000/svg">
<path d="M17.4736 13.7475C17.4736 14.0175 17.4136 14.295 17.2861 14.565C17.1586 14.835 16.9936 15.09 16.7761 15.33C16.4086 15.735 16.0036 16.0275 15.5461 16.215C15.0961 16.4025 14.6086 16.5 14.0836 16.5C13.3186 16.5 12.5011 16.32 11.6386 15.9525C10.7761 15.585 9.91359 15.09 9.05859 14.4675C8.19609 13.8375 7.37859 13.14 6.59859 12.3675C5.82609 11.5875 5.12859 10.77 4.50609 9.91503C3.89109 9.06003 3.39609 8.20503 3.03609 7.35753C2.67609 6.50253 2.49609 5.68503 2.49609 4.90503C2.49609 4.39503 2.58609 3.90753 2.76609 3.45753C2.94609 3.00003 3.23109 2.58003 3.62859 2.20503C4.10859 1.73253 4.63359 1.50003 5.18859 1.50003C5.39859 1.50003 5.60859 1.54503 5.79609 1.63503C5.99109 1.72503 6.16359 1.86003 6.29859 2.05503L8.03859 4.50753C8.17359 4.69503 8.27109 4.86753 8.33859 5.03253C8.40609 5.19003 8.44359 5.34753 8.44359 5.49003C8.44359 5.67003 8.39109 5.85003 8.28609 6.02253C8.18859 6.19503 8.04609 6.37503 7.86609 6.55503L7.29609 7.14753C7.21359 7.23003 7.17609 7.32753 7.17609 7.44753C7.17609 7.50753 7.18359 7.56003 7.19859 7.62003C7.22109 7.68003 7.24359 7.72503 7.25859 7.77003C7.39359 8.01753 7.62609 8.34003 7.95609 8.73003C8.29359 9.12003 8.65359 9.51753 9.04359 9.91503C9.44859 10.3125 9.83859 10.68 10.2361 11.0175C10.6261 11.3475 10.9486 11.5725 11.2036 11.7075C11.2411 11.7225 11.2861 11.745 11.3386 11.7675C11.3986 11.79 11.4586 11.7975 11.5261 11.7975C11.6536 11.7975 11.7511 11.7525 11.8336 11.67L12.4036 11.1075C12.5911 10.92 12.7711 10.7775 12.9436 10.6875C13.1161 10.5825 13.2886 10.53 13.4761 10.53C13.6186 10.53 13.7686 10.56 13.9336 10.6275C14.0986 10.695 14.2711 10.7925 14.4586 10.92L16.9411 12.6825C17.1361 12.8175 17.2711 12.975 17.3536 13.1625C17.4286 13.35 17.4736 13.5375 17.4736 13.7475Z" stroke="#023361" stroke-width="1.5" stroke-miterlimit="10"/>
<path d="M15.9965 3.00003H12.3965M15.9965 3.00003V6.60003V3.00003Z" stroke="#023361" stroke-width="1.5" stroke-linecap="round" stroke-linejoin="round"/>
</svg>
